<mxfile host="app.diagrams.net" modified="2023-10-28T07:36:33.928Z" agent="Mozilla/5.0 (Windows NT 10.0; Win64; x64) AppleWebKit/537.36 (KHTML, like Gecko) Chrome/118.0.0.0 Safari/537.36 Edg/118.0.2088.61" version="22.0.8" etag="UYZQjBUMNnzavcP18b7D" type="github">
  <diagram name="페이지-1" id="1GgFQHvNFTv9uZbP1NM5">
    <mxGraphModel>
      <root>
        <mxCell id="0" />
        <mxCell id="1" parent="0" />
      </root>
    </mxGraphModel>
  </diagram>
</mxfile>
